<svg xmlns="http://www.w3.org/2000/svg" width="528.807" height="528.807"><path d="M513.74 204.829l-29.482 29.486-82.147-82.139 29.494-29.489c9.292-9.292 23.253-10.441 31.138-2.565l53.563 53.572c7.873 7.873 6.726 21.843-2.566 31.135zm-125.319-38.97l82.147 82.147-195.883 195.88c-.898.898-3.393 3.393-6.892 4.285a9.395 9.395 0 01-1.229.491l-102.23 32.58c-2.861.904-5.736.319-7.601-1.549-1.871-1.868-2.45-4.74-1.555-7.602l32.58-102.221a11.2 11.2 0 01.491-1.224c.896-3.505 3.384-5.993 4.292-6.897l36.812-36.812H105.02c-5.012 0-9.079-4.066-9.079-9.079a9.073 9.073 0 019.079-9.078h142.491l140.91-140.921zM249.417 437.574l-50.569-50.561-13.565 42.581 21.554 21.557 42.58-13.577zm135.848-239.066c-2.908-2.911-7.625-2.911-10.527 0L222.03 351.206a7.454 7.454 0 000 10.533 7.445 7.445 0 0010.53 0L385.265 209.04c2.907-2.911 2.907-7.627 0-10.532zm-9.228 290.709c0 5.455-4.438 9.9-9.895 9.9H185.956l-16.275 5.189a32.886 32.886 0 01-9.992 1.566c-7.161 0-13.819-2.453-19.266-6.756H46.885c-5.458 0-9.909-4.434-9.909-9.9V73.424c0-5.458 4.445-9.9 9.909-9.9h37.12v15.675c0 5.464 4.43 9.897 9.903 9.897 5.471 0 9.901-4.433 9.901-9.897V63.523h56.92v15.675c0 5.464 4.43 9.897 9.901 9.897 5.473 0 9.903-4.433 9.903-9.897V63.523h49.497v15.675c0 5.464 4.43 9.897 9.904 9.897 5.47 0 9.9-4.433 9.9-9.897V63.523h54.453v15.675c0 5.464 4.427 9.897 9.895 9.897 5.473 0 9.906-4.433 9.906-9.897V63.523h42.072c5.45 0 9.896 4.442 9.896 9.9v68.571l10.379-10.374 19.322-19.325V73.424c0-21.831-17.762-39.596-39.597-39.596h-42.072V9.904c0-5.467-4.434-9.904-9.906-9.904-5.462 0-9.895 4.431-9.895 9.904v23.924h-54.465V9.904c0-5.467-4.43-9.904-9.901-9.904a9.9 9.9 0 00-9.903 9.904v23.924h-49.497V9.904c0-5.467-4.43-9.904-9.904-9.904-5.47 0-9.9 4.431-9.9 9.904v23.924h-56.92V9.904c0-5.467-4.431-9.904-9.901-9.904a9.9 9.9 0 00-9.903 9.904v23.924h-37.12c-21.832 0-39.602 17.765-39.602 39.596v415.787c0 21.834 17.771 39.596 39.602 39.596h319.264c21.835 0 39.597-17.762 39.597-39.596V345.059l-29.702 29.708v114.45h.005zm-77.33-336.781H105.02a9.078 9.078 0 00-9.079 9.079 9.077 9.077 0 009.079 9.079h193.687a9.077 9.077 0 009.079-9.079 9.077 9.077 0 00-9.079-9.079zm0 73.199H105.02a9.08 9.08 0 00-9.079 9.079 9.077 9.077 0 009.079 9.079h193.687a9.077 9.077 0 009.079-9.079 9.079 9.079 0 00-9.079-9.079z"/></svg>