<svg height="512" width="512" xmlns="http://www.w3.org/2000/svg"><path d="M413.38 318.36c0 69.12-36.22 129.79-90.73 164.05-14.91 9.38-58.91 14.06-102.91 14.06-44 .01-88-4.68-102.91-14.05-54.51-34.26-90.73-94.93-90.73-164.06 0-106.95 86.69-193.64 193.64-193.64 106.94 0 193.64 86.69 193.64 193.64z" fill="#48588b"/><path d="M413.38 318.36c0 69.12-36.22 129.79-90.73 164.05-14.91 9.38-58.91 14.06-102.91 14.06V124.72c106.94 0 193.64 86.69 193.64 193.64z" fill="#3c4a83"/><circle cx="219.74" cy="292.48" fill="#f9c4b9" transform="rotate(-76.7 219.811 292.556)" r="55.91"/><path d="M275.65 292.48c0 30.88-25.03 55.91-55.91 55.91V236.57c30.88 0 55.91 25.04 55.91 55.91z" fill="#ffb19e"/><path d="M322.65 429.05v53.36C292.84 501.16 257.56 512 219.74 512s-73.1-10.84-102.91-29.58v-53.37c0-44.55 36.11-80.66 80.65-80.66H242c44.54 0 80.65 36.11 80.65 80.66z" fill="#60e2f4"/><path d="M322.65 429.05v53.36C292.84 501.16 257.56 512 219.74 512V348.39H242c44.54 0 80.65 36.11 80.65 80.66z" fill="#29c5ec"/><path d="M457.912 62.94v33.79h-30V62.94c0-18.16-14.78-32.94-32.94-32.94-18.17 0-32.94 14.78-32.94 32.94v33.79h-30V62.94c0-34.7 28.23-62.94 62.94-62.94s62.94 28.24 62.94 62.94z" fill="#cddbf9"/><path d="M457.912 62.94v33.79h-30V62.94c0-18.16-14.78-32.94-32.94-32.94V0c34.71 0 62.94 28.24 62.94 62.94z" fill="#afc2e8"/><path d="M304.03 81.73v167.44h75.94l15-10.75 15 10.75h75.93V81.73z" fill="#fea000"/><path d="M485.9 81.73v167.44h-75.93l-15-10.75V81.73z" fill="#f78002"/><path d="M379.972 150.45h30v98.72h-30z" fill="#fbe200"/><path d="M394.972 150.45h15v98.72h-15z" fill="#febf01"/></svg>